<svg width="321" height="74" viewBox="0 0 321 74" fill="none" xmlns="http://www.w3.org/2000/svg">
<path d="M302.809 67H301.104L300.304 64.4951H295.522L294.714 67H293.088L296.902 55.5127H299.047L302.809 67ZM299.855 63.0977L297.913 56.9541L295.971 63.0977H299.855ZM310.926 59.0283C310.926 59.4971 310.838 59.9629 310.663 60.4258C310.487 60.8828 310.214 61.293 309.845 61.6562C309.476 62.0195 309.004 62.3154 308.43 62.5439C307.856 62.7666 307.17 62.8779 306.373 62.8779H304.95V67H303.385V55.5127H306.62C307.188 55.5127 307.733 55.5771 308.254 55.7061C308.776 55.8291 309.233 56.0312 309.625 56.3125C310.024 56.5938 310.34 56.957 310.575 57.4023C310.809 57.8477 310.926 58.3896 310.926 59.0283ZM309.3 59.0986C309.3 58.3604 309.057 57.7949 308.571 57.4023C308.09 57.0098 307.416 56.8135 306.549 56.8135H304.95V61.542H306.409C307.334 61.542 308.046 61.3398 308.544 60.9355C309.048 60.5312 309.3 59.9189 309.3 59.0986ZM315.15 56.8311H312.505V55.5127H319.378V56.8311H316.732V65.6641H319.378V67H312.505V65.6641H315.15V56.8311Z" fill="black"/>
<path d="M23.625 44.005C23.625 43.495 23.445 43.015 23.085 42.565C22.725 42.115 22.29 41.89 21.78 41.89H15.84V46.12H21.78C22.29 46.12 22.725 45.895 23.085 45.445C23.445 44.995 23.625 44.515 23.625 44.005ZM25.425 67C24.885 66.22 24.45 65.335 24.12 64.345C23.79 63.355 23.625 62.38 23.625 61.42V54.805C23.625 54.295 23.445 53.86 23.085 53.5C22.725 53.14 22.29 52.96 21.78 52.96H15.84V67H1.62V31H25.245C27.075 31 28.71 31.255 30.15 31.765C31.62 32.275 32.865 32.95 33.885 33.79C34.905 34.63 35.685 35.605 36.225 36.715C36.765 37.795 37.035 38.92 37.035 40.09C37.035 42.43 36.42 44.41 35.19 46.03C33.99 47.62 32.385 48.67 30.375 49.18C31.035 49.36 31.74 49.645 32.49 50.035C33.27 50.425 33.99 50.965 34.65 51.655C35.34 52.345 35.91 53.215 36.36 54.265C36.81 55.285 37.035 56.53 37.035 58V60.97C37.035 62.11 37.215 63.19 37.575 64.21C37.935 65.2 38.325 66.13 38.745 67H25.425ZM56.1414 51.43C55.9314 50.26 55.5564 49.45 55.0164 49C54.5064 48.52 53.8314 48.28 52.9914 48.28C52.1814 48.28 51.5064 48.52 50.9664 49C50.4564 49.45 50.0964 50.26 49.8864 51.43H56.1414ZM69.2364 53.725C69.2364 53.995 69.2214 54.265 69.1914 54.535C69.1914 54.805 69.1764 55.075 69.1464 55.345H49.7964C49.9464 56.785 50.2914 57.79 50.8314 58.36C51.3714 58.93 52.0914 59.215 52.9914 59.215C53.6814 59.215 54.2664 59.065 54.7464 58.765C55.2264 58.465 55.6014 57.94 55.8714 57.19H68.7414C68.2914 58.69 67.5864 60.07 66.6264 61.33C65.6664 62.59 64.4964 63.685 63.1164 64.615C61.7364 65.515 60.1914 66.235 58.4814 66.775C56.7714 67.285 54.9414 67.54 52.9914 67.54C50.6814 67.54 48.5364 67.18 46.5564 66.46C44.5764 65.74 42.8664 64.75 41.4264 63.49C39.9864 62.23 38.8464 60.76 38.0064 59.08C37.1964 57.4 36.7914 55.615 36.7914 53.725C36.7914 51.835 37.1964 50.05 38.0064 48.37C38.8464 46.69 39.9864 45.22 41.4264 43.96C42.8664 42.7 44.5764 41.71 46.5564 40.99C48.5364 40.27 50.6814 39.91 52.9914 39.91C55.3014 39.91 57.4464 40.27 59.4264 40.99C61.4064 41.71 63.1164 42.7 64.5564 43.96C66.0264 45.22 67.1664 46.69 67.9764 48.37C68.8164 50.05 69.2364 51.835 69.2364 53.725ZM101.294 55.615C101.024 57.295 100.424 58.855 99.4939 60.295C98.5939 61.735 97.4389 62.995 96.0289 64.075C94.6189 65.125 92.9839 65.965 91.1239 66.595C89.2939 67.195 87.3139 67.495 85.1839 67.495C82.8739 67.495 80.7289 67.135 78.7489 66.415C76.7689 65.695 75.0589 64.72 73.6189 63.49C72.1789 62.23 71.0389 60.76 70.1989 59.08C69.3889 57.4 68.9839 55.615 68.9839 53.725C68.9839 51.835 69.3889 50.05 70.1989 48.37C71.0389 46.69 72.1789 45.22 73.6189 43.96C75.0589 42.7 76.7689 41.71 78.7489 40.99C80.7289 40.27 82.8739 39.91 85.1839 39.91C87.3139 39.91 89.2939 40.225 91.1239 40.855C92.9839 41.455 94.6189 42.295 96.0289 43.375C97.4389 44.425 98.5939 45.685 99.4939 47.155C100.424 48.595 101.024 50.155 101.294 51.835H88.3789C88.2289 50.485 87.8689 49.555 87.2989 49.045C86.7589 48.505 86.0539 48.235 85.1839 48.235C84.1339 48.235 83.3239 48.64 82.7539 49.45C82.1839 50.23 81.8989 51.655 81.8989 53.725C81.8989 55.795 82.1839 57.235 82.7539 58.045C83.3239 58.825 84.1339 59.215 85.1839 59.215C86.0539 59.215 86.7589 58.96 87.2989 58.45C87.8689 57.91 88.2289 56.965 88.3789 55.615H101.294ZM124.361 48.685C122.411 48.685 120.776 48.76 119.456 48.91C118.166 49.06 117.116 49.33 116.306 49.72C115.526 50.08 114.956 50.605 114.596 51.295C114.266 51.955 114.101 52.825 114.101 53.905V67H101.186V40.45H113.561L114.191 43.6C114.671 43.06 115.181 42.565 115.721 42.115C116.261 41.635 116.921 41.245 117.701 40.945C118.481 40.615 119.396 40.36 120.446 40.18C121.526 40 122.831 39.91 124.361 39.91V48.685ZM142.656 51.43C142.446 50.26 142.071 49.45 141.531 49C141.021 48.52 140.346 48.28 139.506 48.28C138.696 48.28 138.021 48.52 137.481 49C136.971 49.45 136.611 50.26 136.401 51.43H142.656ZM155.751 53.725C155.751 53.995 155.736 54.265 155.706 54.535C155.706 54.805 155.691 55.075 155.661 55.345H136.311C136.461 56.785 136.806 57.79 137.346 58.36C137.886 58.93 138.606 59.215 139.506 59.215C140.196 59.215 140.781 59.065 141.261 58.765C141.741 58.465 142.116 57.94 142.386 57.19H155.256C154.806 58.69 154.101 60.07 153.141 61.33C152.181 62.59 151.011 63.685 149.631 64.615C148.251 65.515 146.706 66.235 144.996 66.775C143.286 67.285 141.456 67.54 139.506 67.54C137.196 67.54 135.051 67.18 133.071 66.46C131.091 65.74 129.381 64.75 127.941 63.49C126.501 62.23 125.361 60.76 124.521 59.08C123.711 57.4 123.306 55.615 123.306 53.725C123.306 51.835 123.711 50.05 124.521 48.37C125.361 46.69 126.501 45.22 127.941 43.96C129.381 42.7 131.091 41.71 133.071 40.99C135.051 40.27 137.196 39.91 139.506 39.91C141.816 39.91 143.961 40.27 145.941 40.99C147.921 41.71 149.631 42.7 151.071 43.96C152.541 45.22 153.681 46.69 154.491 48.37C155.331 50.05 155.751 51.835 155.751 53.725ZM173.138 55.525C171.278 55.855 169.898 56.245 168.998 56.695C168.098 57.115 167.648 57.715 167.648 58.495C167.648 59.005 167.873 59.485 168.323 59.935C168.773 60.355 169.463 60.565 170.393 60.565C171.323 60.565 172.013 60.355 172.463 59.935C172.913 59.485 173.138 59.005 173.138 58.495V55.525ZM174.038 67L173.273 64.705C172.973 64.975 172.583 65.275 172.103 65.605C171.653 65.935 171.098 66.25 170.438 66.55C169.778 66.82 169.028 67.045 168.188 67.225C167.378 67.435 166.478 67.54 165.488 67.54C163.958 67.54 162.533 67.36 161.213 67C159.893 66.61 158.738 66.1 157.748 65.47C156.788 64.81 156.038 64.03 155.498 63.13C154.958 62.23 154.688 61.24 154.688 60.16C154.688 58.6 155.123 57.325 155.993 56.335C156.893 55.315 158.153 54.49 159.773 53.86C161.393 53.2 163.328 52.66 165.578 52.24C167.858 51.79 170.378 51.355 173.138 50.935V49.045C173.138 48.595 172.988 48.235 172.688 47.965C172.418 47.665 171.893 47.515 171.113 47.515C170.393 47.515 169.898 47.665 169.628 47.965C169.358 48.235 169.223 48.595 169.223 49.045V49.945H156.263V48.82C156.263 47.65 156.653 46.54 157.433 45.49C158.213 44.41 159.278 43.465 160.628 42.655C162.008 41.815 163.628 41.155 165.488 40.675C167.378 40.165 169.403 39.91 171.563 39.91C173.723 39.91 175.688 40.18 177.458 40.72C179.258 41.26 180.788 41.98 182.048 42.88C183.338 43.75 184.328 44.74 185.018 45.85C185.738 46.96 186.098 48.1 186.098 49.27V60.88C186.098 62.26 186.203 63.475 186.413 64.525C186.623 65.575 186.923 66.4 187.313 67H174.038ZM202.984 67C200.974 67 199.219 66.775 197.719 66.325C196.249 65.875 195.019 65.26 194.029 64.48C193.039 63.67 192.289 62.71 191.779 61.6C191.299 60.46 191.059 59.215 191.059 57.865V47.47H185.794V40.45H191.059V35.41H204.019V40.45H210.319V47.47H204.019V57.19C204.019 57.76 204.274 58.285 204.784 58.765C205.324 59.245 205.969 59.485 206.719 59.485H210.319V67H202.984ZM210.357 67V40.45H223.317V67H210.357ZM210.357 38.245V31H223.317V38.245H210.357ZM242.998 53.725C242.998 51.685 242.698 50.275 242.098 49.495C241.528 48.685 240.733 48.28 239.713 48.28C238.663 48.28 237.853 48.685 237.283 49.495C236.713 50.275 236.428 51.685 236.428 53.725C236.428 55.795 236.713 57.235 237.283 58.045C237.853 58.825 238.663 59.215 239.713 59.215C240.763 59.215 241.573 58.825 242.143 58.045C242.713 57.235 242.998 55.795 242.998 53.725ZM255.913 53.725C255.913 55.615 255.493 57.4 254.653 59.08C253.843 60.76 252.718 62.23 251.278 63.49C249.838 64.75 248.128 65.74 246.148 66.46C244.168 67.18 242.023 67.54 239.713 67.54C237.403 67.54 235.258 67.18 233.278 66.46C231.298 65.74 229.573 64.75 228.103 63.49C226.663 62.23 225.523 60.76 224.683 59.08C223.873 57.4 223.468 55.615 223.468 53.725C223.468 51.835 223.873 50.05 224.683 48.37C225.523 46.69 226.663 45.22 228.103 43.96C229.573 42.7 231.298 41.71 233.278 40.99C235.258 40.27 237.403 39.91 239.713 39.91C242.023 39.91 244.168 40.27 246.148 40.99C248.128 41.71 249.838 42.7 251.278 43.96C252.718 45.22 253.843 46.69 254.653 48.37C255.493 50.05 255.913 51.835 255.913 53.725ZM275.955 67V51.385C275.955 50.605 275.61 49.96 274.92 49.45C274.26 48.94 273.45 48.685 272.49 48.685C271.53 48.685 270.705 48.94 270.015 49.45C269.355 49.96 269.025 50.605 269.025 51.385V67H256.065V40.45H268.485L269.115 43.6C269.895 42.67 271.08 41.83 272.67 41.08C274.26 40.3 276.105 39.91 278.205 39.91C281.475 39.91 284.04 40.615 285.9 42.025C287.79 43.435 288.78 45.37 288.87 47.83V67H275.955Z" fill="black"/>
<path d="M199.285 24.175C198.665 24.285 198.205 24.415 197.905 24.565C197.605 24.705 197.455 24.905 197.455 25.165C197.455 25.335 197.53 25.495 197.68 25.645C197.83 25.785 198.06 25.855 198.37 25.855C198.68 25.855 198.91 25.785 199.06 25.645C199.21 25.495 199.285 25.335 199.285 25.165V24.175ZM199.585 28L199.33 27.235C199.23 27.325 199.1 27.425 198.94 27.535C198.79 27.645 198.605 27.75 198.385 27.85C198.165 27.94 197.915 28.015 197.635 28.075C197.365 28.145 197.065 28.18 196.735 28.18C196.225 28.18 195.75 28.12 195.31 28C194.87 27.87 194.485 27.7 194.155 27.49C193.835 27.27 193.585 27.01 193.405 26.71C193.225 26.41 193.135 26.08 193.135 25.72C193.135 25.2 193.28 24.775 193.57 24.445C193.87 24.105 194.29 23.83 194.83 23.62C195.37 23.4 196.015 23.22 196.765 23.08C197.525 22.93 198.365 22.785 199.285 22.645V22.015C199.285 21.865 199.235 21.745 199.135 21.655C199.045 21.555 198.87 21.505 198.61 21.505C198.37 21.505 198.205 21.555 198.115 21.655C198.025 21.745 197.98 21.865 197.98 22.015V22.315H193.66V21.94C193.66 21.55 193.79 21.18 194.05 20.83C194.31 20.47 194.665 20.155 195.115 19.885C195.575 19.605 196.115 19.385 196.735 19.225C197.365 19.055 198.04 18.97 198.76 18.97C199.48 18.97 200.135 19.06 200.725 19.24C201.325 19.42 201.835 19.66 202.255 19.96C202.685 20.25 203.015 20.58 203.245 20.95C203.485 21.32 203.605 21.7 203.605 22.09V25.96C203.605 26.42 203.64 26.825 203.71 27.175C203.78 27.525 203.88 27.8 204.01 28H199.585ZM210.374 28V22.795C210.374 22.535 210.259 22.32 210.029 22.15C209.809 21.98 209.539 21.895 209.219 21.895C208.899 21.895 208.624 21.98 208.394 22.15C208.174 22.32 208.064 22.535 208.064 22.795V28H203.744V19.15H207.884L208.094 20.2C208.354 19.89 208.749 19.61 209.279 19.36C209.809 19.1 210.424 18.97 211.124 18.97C212.214 18.97 213.069 19.205 213.689 19.675C214.319 20.145 214.649 20.79 214.679 21.61V28H210.374ZM221.531 23.575C221.531 23.235 221.496 22.95 221.426 22.72C221.366 22.48 221.276 22.29 221.156 22.15C221.046 22 220.911 21.895 220.751 21.835C220.601 21.775 220.436 21.745 220.256 21.745C220.076 21.745 219.906 21.775 219.746 21.835C219.596 21.895 219.461 22 219.341 22.15C219.231 22.29 219.141 22.48 219.071 22.72C219.011 22.95 218.981 23.235 218.981 23.575C218.981 23.915 219.011 24.2 219.071 24.43C219.141 24.66 219.231 24.85 219.341 25C219.461 25.14 219.596 25.24 219.746 25.3C219.906 25.36 220.076 25.39 220.256 25.39C220.436 25.39 220.601 25.36 220.751 25.3C220.911 25.24 221.046 25.14 221.156 25C221.276 24.85 221.366 24.66 221.426 24.43C221.496 24.2 221.531 23.915 221.531 23.575ZM221.516 28L221.306 26.95C221.166 27.1 221.016 27.25 220.856 27.4C220.706 27.55 220.526 27.68 220.316 27.79C220.116 27.9 219.881 27.99 219.611 28.06C219.341 28.13 219.031 28.165 218.681 28.165C218.071 28.165 217.516 28.045 217.016 27.805C216.526 27.565 216.106 27.24 215.756 26.83C215.416 26.41 215.151 25.92 214.961 25.36C214.771 24.8 214.676 24.205 214.676 23.575C214.676 22.945 214.791 22.35 215.021 21.79C215.251 21.23 215.566 20.74 215.966 20.32C216.366 19.9 216.836 19.57 217.376 19.33C217.916 19.09 218.491 18.97 219.101 18.97C219.511 18.97 219.901 19.025 220.271 19.135C220.651 19.245 221.001 19.4 221.321 19.6V16H225.641V28H221.516Z" fill="black"/>
<path d="M62.1 13.78C62.1 13.1933 61.88 12.6653 61.44 12.196C61 11.6973 60.4573 11.448 59.812 11.448H54.488V16.112H59.812C60.4573 16.112 61 15.8627 61.44 15.364C61.88 14.8653 62.1 14.3373 62.1 13.78ZM76.84 12.152C76.84 13.736 76.5173 15.2173 75.872 16.596C75.2267 17.9747 74.3027 19.1773 73.1 20.204C71.9267 21.2307 70.4893 22.052 68.788 22.668C67.116 23.2547 65.2387 23.548 63.156 23.548H54.488V36H40.584V0.799999H63.156C65.2387 0.799999 67.116 1.108 68.788 1.724C70.4893 2.31066 71.9267 3.11733 73.1 4.144C74.3027 5.17067 75.2267 6.37333 75.872 7.752C76.5173 9.13067 76.84 10.5973 76.84 12.152ZM93.3923 24.78C91.5736 25.1027 90.2243 25.484 89.3443 25.924C88.4643 26.3347 88.0243 26.9213 88.0243 27.684C88.0243 28.1827 88.2442 28.652 88.6842 29.092C89.1242 29.5027 89.7989 29.708 90.7082 29.708C91.6176 29.708 92.2923 29.5027 92.7322 29.092C93.1723 28.652 93.3923 28.1827 93.3923 27.684V24.78ZM94.2722 36L93.5243 33.756C93.2309 34.02 92.8496 34.3133 92.3803 34.636C91.9402 34.9587 91.3976 35.2667 90.7523 35.56C90.1069 35.824 89.3736 36.044 88.5522 36.22C87.7602 36.4253 86.8802 36.528 85.9122 36.528C84.4162 36.528 83.0229 36.352 81.7322 36C80.4416 35.6187 79.3122 35.12 78.3442 34.504C77.4056 33.8587 76.6722 33.096 76.1442 32.216C75.6162 31.336 75.3522 30.368 75.3522 29.312C75.3522 27.7867 75.7776 26.54 76.6282 25.572C77.5082 24.5747 78.7402 23.768 80.3242 23.152C81.9082 22.5067 83.8002 21.9787 86.0002 21.568C88.2296 21.128 90.6936 20.7027 93.3923 20.292V18.444C93.3923 18.004 93.2456 17.652 92.9522 17.388C92.6882 17.0947 92.1749 16.948 91.4122 16.948C90.7083 16.948 90.2243 17.0947 89.9603 17.388C89.6963 17.652 89.5642 18.004 89.5642 18.444V19.324H76.8922V18.224C76.8922 17.08 77.2736 15.9947 78.0362 14.968C78.7989 13.912 79.8402 12.988 81.1602 12.196C82.5096 11.3747 84.0936 10.7293 85.9122 10.26C87.7602 9.76133 89.7402 9.512 91.8522 9.512C93.9643 9.512 95.8856 9.776 97.6163 10.304C99.3763 10.832 100.872 11.536 102.104 12.416C103.366 13.2667 104.334 14.2347 105.008 15.32C105.712 16.4053 106.064 17.52 106.064 18.664V30.016C106.064 31.3653 106.167 32.5533 106.372 33.58C106.578 34.6067 106.871 35.4133 107.252 36H94.2722ZM129.571 18.092C127.664 18.092 126.065 18.1653 124.775 18.312C123.513 18.4587 122.487 18.7227 121.695 19.104C120.932 19.456 120.375 19.9693 120.023 20.644C119.7 21.2893 119.539 22.14 119.539 23.196V36H106.911V10.04H119.011L119.627 13.12C120.096 12.592 120.595 12.108 121.123 11.668C121.651 11.1987 122.296 10.8173 123.059 10.524C123.821 10.2013 124.716 9.952 125.743 9.776C126.799 9.6 128.075 9.512 129.571 9.512V18.092ZM148.163 36L143.235 27.64L142.003 29.268V36H129.375V0.799999H142.003V17.3L147.283 10.084H160.483L152.519 20.556L161.627 36H148.163ZM190.173 27.508C190.173 28.74 189.895 29.9133 189.337 31.028C188.78 32.1133 187.9 33.0667 186.697 33.888C185.524 34.7093 183.984 35.3547 182.077 35.824C180.171 36.2933 177.883 36.528 175.213 36.528C173.043 36.528 171.019 36.308 169.141 35.868C167.264 35.3987 165.621 34.768 164.213 33.976C162.805 33.184 161.691 32.2307 160.869 31.116C160.077 30.0013 159.681 28.784 159.681 27.464H170.461C170.608 28.344 171.063 29.0333 171.825 29.532C172.588 30.0307 173.556 30.28 174.729 30.28C175.991 30.28 176.9 30.1333 177.457 29.84C178.044 29.5467 178.337 29.1653 178.337 28.696C178.337 28.1973 177.883 27.8307 176.973 27.596C176.093 27.332 174.979 27.0827 173.629 26.848C172.28 26.6133 170.813 26.3493 169.229 26.056C167.675 25.7627 166.223 25.3227 164.873 24.736C163.524 24.1493 162.395 23.372 161.485 22.404C160.605 21.4067 160.165 20.1013 160.165 18.488C160.165 17.4027 160.459 16.332 161.045 15.276C161.661 14.1907 162.585 13.2227 163.817 12.372C165.049 11.5213 166.589 10.832 168.437 10.304C170.285 9.776 172.471 9.512 174.993 9.512C177.076 9.512 178.983 9.74666 180.713 10.216C182.444 10.6853 183.94 11.316 185.201 12.108C186.463 12.9 187.431 13.8093 188.105 14.836C188.809 15.8627 189.161 16.948 189.161 18.092H178.953C178.865 17.564 178.689 17.124 178.425 16.772C178.161 16.42 177.839 16.1413 177.457 15.936C177.076 15.7013 176.665 15.54 176.225 15.452C175.785 15.3347 175.36 15.276 174.949 15.276C172.896 15.276 171.869 15.7453 171.869 16.684C171.869 17.0947 172.133 17.432 172.661 17.696C173.189 17.96 173.879 18.2093 174.729 18.444C175.58 18.6493 176.548 18.8547 177.633 19.06C178.748 19.236 179.877 19.4707 181.021 19.764C182.165 20.028 183.28 20.3653 184.365 20.776C185.48 21.1573 186.463 21.656 187.313 22.272C188.164 22.8587 188.853 23.5773 189.381 24.428C189.909 25.2787 190.173 26.3053 190.173 27.508Z" fill="black"/>
</svg>
